<?xml version="1.0" standalone="no"?>
<!DOCTYPE svg PUBLIC "-//W3C//DTD SVG 20010904//EN"
 "http://www.w3.org/TR/2001/REC-SVG-20010904/DTD/svg10.dtd">
<svg version="1.0" xmlns="http://www.w3.org/2000/svg"
 width="360.000000pt" height="360.000000pt" viewBox="0 0 360.000000 360.000000"
 preserveAspectRatio="xMidYMid meet">
<metadata>
Created by potrace 1.16, written by Peter Selinger 2001-2019
</metadata>
<g transform="translate(0.000000,360.000000) scale(0.100000,-0.100000)"
fill="#000000" stroke="none">
<path d="M685 3261 c-16 -4 -40 -13 -51 -19 -36 -19 -83 -80 -89 -115 -4 -18
-5 -132 -3 -254 l3 -221 30 -38 c63 -77 34 -74 642 -74 l543 0 0 -49 c0 -33
-5 -51 -14 -54 -8 -3 -251 -6 -541 -7 -571 -1 -565 0 -616 -56 -44 -48 -49
-82 -49 -311 0 -242 6 -266 77 -320 l36 -28 554 -3 554 -2 -3 -53 -3 -52 -550
-5 c-390 -4 -556 -8 -570 -17 -32 -18 -63 -55 -80 -95 -12 -30 -15 -80 -15
-246 0 -224 5 -258 49 -305 59 -64 33 -62 626 -64 l540 -2 3 -132 3 -132 -41
-34 c-22 -19 -40 -41 -40 -49 0 -12 -71 -14 -456 -16 -423 -3 -458 -4 -468
-20 -8 -13 -8 -23 0 -35 10 -17 45 -18 462 -21 l452 -2 14 -29 c21 -40 58 -61
110 -61 59 0 92 16 117 57 l21 33 450 2 c417 3 452 4 462 21 8 12 8 22 0 35
-10 16 -45 17 -468 20 -385 2 -456 4 -456 16 0 8 -18 30 -40 49 l-41 34 3 132
3 132 540 2 c581 2 558 0 618 56 52 48 57 74 57 306 0 132 -4 225 -11 246 -12
36 -51 83 -84 102 -14 9 -178 13 -570 17 l-550 5 -3 52 -3 53 554 2 554 3 36
28 c71 54 77 78 77 320 0 133 -4 227 -11 248 -16 46 -65 96 -108 110 -25 9
-190 13 -561 14 -289 1 -528 3 -532 4 -5 0 -8 24 -8 51 l0 50 543 0 c608 0
579 -3 642 74 l30 38 3 223 c2 138 -1 238 -7 263 -14 49 -74 106 -128 121 -44
12 -2188 14 -2238 2z m2235 -96 c16 -8 34 -24 40 -34 6 -12 10 -105 10 -231 0
-126 -4 -219 -10 -231 -28 -51 14 -49 -1160 -49 -1174 0 -1132 -2 -1160 49
-13 26 -13 436 0 461 27 51 -15 49 1158 50 956 0 1097 -2 1122 -15z m0 -830
c16 -8 34 -24 40 -34 14 -27 13 -436 -1 -463 -26 -49 -2 -48 -1159 -48 -1157
0 -1133 -1 -1159 48 -14 27 -15 436 -1 462 27 51 -15 49 1158 50 956 0 1097
-2 1122 -15z m26 -848 c24 -28 24 -30 24 -248 l0 -221 -29 -29 -29 -29 -1112
0 -1112 0 -29 29 -29 29 0 219 c0 234 4 253 54 273 11 5 517 8 1129 7 l1109
-2 24 -28z"/>
<path d="M736 3054 c-19 -18 -21 -45 -4 -62 7 -7 43 -12 93 -12 86 0 105 8
105 47 0 32 -28 43 -109 43 -50 0 -74 -4 -85 -16z"/>
<path d="M1006 3057 c-12 -9 -17 -23 -14 -42 l3 -30 90 -3 c76 -2 92 0 102 14
17 23 16 39 -3 58 -20 20 -151 22 -178 3z"/>
<path d="M1266 3049 c-9 -14 -12 -29 -7 -43 7 -19 17 -21 99 -24 84 -3 92 -1
102 18 9 17 8 27 -5 46 -14 22 -22 24 -95 24 -69 0 -81 -3 -94 -21z"/>
<path d="M2595 3031 c-91 -39 -113 -165 -40 -229 61 -54 131 -54 189 2 60 56
60 130 3 193 -28 30 -41 36 -83 39 -27 2 -58 0 -69 -5z"/>
<path d="M736 2934 c-20 -20 -20 -48 -1 -64 20 -17 176 -14 187 3 14 22 8 56
-11 67 -32 17 -157 13 -175 -6z"/>
<path d="M1008 2939 c-19 -10 -24 -45 -10 -66 11 -17 167 -20 187 -3 22 18 18
46 -7 64 -26 18 -142 22 -170 5z"/>
<path d="M1266 2929 c-9 -14 -12 -29 -7 -43 8 -19 15 -21 101 -21 86 0 93 2
101 21 5 14 2 29 -7 43 -13 18 -25 21 -94 21 -69 0 -81 -3 -94 -21z"/>
<path d="M748 2824 c-10 -3 -21 -17 -25 -31 -10 -43 25 -63 107 -63 72 0 100
14 100 48 0 38 -17 47 -92 49 -40 1 -81 -1 -90 -3z"/>
<path d="M1020 2823 c-39 -15 -41 -69 -4 -83 44 -17 139 -12 164 8 29 24 22
67 -12 75 -33 7 -130 7 -148 0z"/>
<path d="M1284 2821 c-27 -12 -36 -45 -19 -68 11 -15 28 -18 95 -18 69 0 84 3
96 19 17 24 17 28 0 51 -11 15 -29 20 -82 22 -38 2 -79 -1 -90 -6z"/>
<path d="M736 2224 c-19 -18 -21 -45 -4 -62 7 -7 43 -12 93 -12 83 0 105 9
105 41 0 36 -28 49 -105 49 -54 0 -78 -4 -89 -16z"/>
<path d="M1002 2228 c-17 -17 -15 -65 4 -72 29 -11 169 -7 182 6 17 17 15 44
-4 62 -19 20 -163 23 -182 4z"/>
<path d="M1266 2218 c-20 -28 -20 -33 0 -52 11 -12 36 -16 92 -16 42 0 82 4
88 8 19 13 23 39 8 61 -13 18 -25 21 -94 21 -70 0 -81 -2 -94 -22z"/>
<path d="M2584 2192 c-58 -37 -76 -71 -72 -130 4 -43 11 -59 38 -87 78 -80
215 -40 236 70 9 49 -1 80 -39 122 -28 30 -42 36 -83 40 -37 3 -57 -1 -80 -15z"/>
<path d="M736 2104 c-9 -8 -16 -23 -16 -32 0 -37 15 -43 104 -44 91 -1 105 5
106 44 0 35 -28 48 -105 48 -54 0 -78 -4 -89 -16z"/>
<path d="M1008 2109 c-20 -11 -25 -64 -7 -75 22 -13 171 -6 187 10 20 20 8 62
-20 70 -36 9 -141 6 -160 -5z"/>
<path d="M1270 2100 c-24 -24 -24 -30 -6 -56 12 -16 27 -19 96 -19 69 0 84 3
96 19 18 26 18 32 -6 56 -16 16 -33 20 -90 20 -57 0 -74 -4 -90 -20z"/>
<path d="M724 1965 c-12 -46 18 -65 102 -65 91 0 118 21 98 74 -5 13 -24 16
-100 16 -92 0 -94 0 -100 -25z"/>
<path d="M997 1983 c-4 -3 -7 -19 -7 -34 0 -38 24 -49 108 -49 54 0 72 4 85
18 20 22 22 43 5 60 -13 13 -179 17 -191 5z"/>
<path d="M1260 1969 c-9 -16 -8 -26 5 -45 14 -22 22 -24 95 -24 73 0 81 2 95
24 13 19 14 29 5 45 -10 19 -20 21 -100 21 -80 0 -90 -2 -100 -21z"/>
<path d="M736 1394 c-17 -17 -20 -42 -8 -61 11 -17 167 -20 187 -3 21 18 19
57 -4 70 -32 17 -157 13 -175 -6z"/>
<path d="M1008 1399 c-25 -14 -24 -67 1 -77 11 -4 54 -6 96 -4 69 3 77 6 87
28 9 19 8 28 -7 44 -15 16 -31 20 -89 20 -39 0 -79 -5 -88 -11z"/>
<path d="M1265 1386 c-13 -19 -14 -29 -5 -45 10 -19 20 -21 100 -21 80 0 90 2
100 21 9 16 8 26 -5 45 -14 22 -22 24 -95 24 -73 0 -81 -2 -95 -24z"/>
<path d="M2585 1361 c-48 -29 -67 -57 -72 -104 -10 -90 63 -166 150 -154 139
19 171 196 46 259 -44 23 -86 23 -124 -1z"/>
<path d="M739 1272 c-26 -18 -24 -49 4 -65 24 -16 103 -22 148 -12 35 8 50 48
27 71 -20 20 -153 24 -179 6z"/>
<path d="M1070 1280 l-75 -5 -3 -33 c-3 -27 1 -34 23 -42 33 -13 116 -13 148
-1 45 17 44 73 -1 82 -9 2 -51 2 -92 -1z"/>
<path d="M1260 1259 c-9 -16 -8 -26 5 -45 14 -21 23 -24 80 -24 99 0 139 25
115 71 -9 17 -22 19 -100 19 -80 0 -90 -2 -100 -21z"/>
<path d="M732 1148 c-18 -18 -14 -56 7 -68 11 -5 50 -10 86 -10 36 0 75 5 86
10 21 12 25 50 7 68 -16 16 -170 16 -186 0z"/>
<path d="M997 1153 c-15 -14 -7 -63 12 -73 32 -17 157 -13 175 6 19 18 21 45
4 62 -13 13 -179 17 -191 5z"/>
<path d="M1266 1144 c-20 -19 -20 -24 0 -52 13 -20 24 -22 94 -22 73 0 81 2
95 24 13 19 14 29 5 45 -9 19 -20 21 -95 21 -63 0 -87 -4 -99 -16z"/>
</g>
</svg>
